<?xml version="1.0" encoding="UTF-8" standalone="no"?>

<svg
  xmlns="http://www.w3.org/2000/svg"
  xmlns:inkscape="http://www.inkscape.org/namespaces/inkscape"
  xmlns:sodipodi="http://sodipodi.sourceforge.net/DTD/sodipodi-0.dtd"
  width="364"
  height="364"
  viewBox="0 0 364 420"
  version="1.1">

  <title>AhinArena Logo</title>

  <defs />

  <!--
    The page itself is transparent.
    The original logo path is scaled and centered above the wordmark.
  -->
  <g transform="translate(18 0) scale(0.9)">

    <!-- Dark A with transparent pawn cutout -->
    <path
      d="m 221.37499,28.945
         c 3.07,6.11 4.68,13.24 7.06,19.68
         6.17,16.6 12.12,33.310003 17.99,50.020004
         C 263.985,148.705 282.535,198.385 300.365,248.20499
         c 7.31,20.43 14.63,40.93 22.16,61.30001
         2.7,7.31999 5.18,14.75 7.97,22.04
         1.37,3.56 3.57,7.7 3.63,11.51
         -27.97,0 -55.94,0 -83.92001,0
         -1.92,-7.3 2.89,-18.72001 -3.05,-24.68
         -2.68,-2.68 -6.39,-2.40001 -9.17,-4.51
         -0.02,-4.68 2.3,-8.81 0.1,-13.47001
         -1.89,-4.01999 -5.88,-5.38999 -9.31,-7.66999
         -2.96,-1.97 -5.54,-5.09001 -7.45,-8.05
         -7.36,-11.39001 -10.72,-25.21001 -13.26,-38.35001
         -0.86,-4.46999 -2.48,-9.44 -1.99,-14.04999
         2.53,-1.18 5.56,-0.17 8.22,-1.47
         5.14,-2.53 5.55,-10.7 0.55,-13.61
         -3.53,-2.05 -7.73,-0.58 -11.5,-1.42
         -0.07,-2.6 2.96,-4.32001 4.62,-6.27
         2.68,-3.13 4.82,-6.92 6.15,-10.81
         7.06,-20.58 -8.18,-43.48 -30.13,-44.54
         -20.73,-1 -39.68,18.43 -35.55,39.51
         0.95,4.84 3.21,9.85 6.09,13.83
         1.8,2.5 5.45,4.88999 6.24,7.78
         -3.07,2.35 -8.43,-0.16 -12.09,1.97
         -4.91,2.86 -4.9,11.2 0.48,13.57
         2.84,1.24 6.05,0.34 8.83,1.46
         0.15,14.48999 -7.43,38.78 -15.04,51.21
         -2.13,3.47999 -4.76,6.94 -8.08,9.39999
         -3.44,2.55001 -7.61,3.78001 -9.37,8.12001
         -1.84,4.50999 0.36,8.29 -0.1,12.77
         -3.07,2.36 -7.14,1.94 -9.77,5.38
         -4.79,6.26 -0.81,16.66 -2.48,23.9
         -27.759993,0 -55.509993,0 -83.269993,0
         37.7,-104.7 75.409983,-209.41 113.109993,-314.11
         26.13,0 52.26,0 78.39,0 z"
      fill="#071520"
      fill-rule="evenodd" />

  </g>

  <!-- Centered wordmark -->
  <text
    x="182"
    y="380"
    text-anchor="middle"
    font-family="Inter, Arial, Helvetica, sans-serif"
    font-size="70"
    letter-spacing="-0.8"
    fill="#071520">
    <tspan font-weight="700">Ahin</tspan><tspan font-weight="400">Arena</tspan>
  </text>

</svg>